<svg xmlns="http://www.w3.org/2000/svg" viewBox="0 0 50 50" width="50" height="50"><path d="M30.98 7a1 1 0 0 0-.89.586s-.335.743-.543 1.81C27.584 9.082 25.937 9 25 9s-2.584.082-4.547.396a9 9 0 0 0-.543-1.81 1 1 0 0 0-.967-.584l-.023.002s-6.366.417-10.54 3.71a1 1 0 0 0-.068.06c-.707.667-1.252 1.71-1.921 3.199-.67 1.489-1.375 3.382-2.024 5.525C3.07 23.783 2 29.054 2 34a1 1 0 0 0 .135.5c1.48 2.562 4.161 4.112 6.666 5.082 2.504.97 4.82 1.357 5.947 1.416a1 1 0 0 0 .865-.414l2.412-3.361c1.973.46 4.291.777 6.975.777s5.002-.317 6.975-.777l2.412 3.361a1 1 0 0 0 .865.414c1.127-.06 3.443-.446 5.947-1.416s5.186-2.52 6.666-5.082A1 1 0 0 0 48 34c0-4.946-1.07-10.217-2.367-14.502-.649-2.143-1.354-4.036-2.024-5.525s-1.214-2.532-1.922-3.2l-.068-.058C37.446 7.42 31.08 7.004 31.08 7.004a1 1 0 0 0-.1-.004M18.264 9.145c.074.209.153.39.218.64-2.26.518-4.756 1.353-7.097 2.758a1 1 0 1 0 1.03 1.715C17.144 11.419 23.026 11 25 11s7.855.42 12.586 3.258a1 1 0 1 0 1.03-1.715c-2.342-1.405-4.838-2.24-7.098-2.758.065-.25.144-.431.218-.64 1.148.14 5.568.754 8.594 3.11.201.2.838 1.165 1.455 2.538.625 1.39 1.307 3.215 1.934 5.285 1.224 4.046 2.204 9.027 2.25 13.596-1.157 1.835-3.3 3.194-5.492 4.043a19 19 0 0 1-4.846 1.168l-1.598-2.227a24 24 0 0 0 2.254-.842c2.525-1.099 3.871-2.263 3.871-2.263a1 1 0 1 0-1.316-1.506s-1.054.934-3.354 1.935c-.912.398-2.019.794-3.306 1.131l-.043.012c-1.95.508-4.32.875-7.139.875-2.797 0-5.152-.362-7.094-.863l-.056-.016-.04-.01-.01-.002a23 23 0 0 1-3.288-1.127c-2.3-1-3.354-1.935-3.354-1.935a1 1 0 0 0-.637-.256 1 1 0 0 0-.68 1.762s1.347 1.164 3.872 2.263c.663.29 1.419.575 2.254.842l-1.598 2.227a19 19 0 0 1-4.846-1.168c-2.192-.85-4.335-2.208-5.492-4.043.046-4.569 1.026-9.55 2.25-13.596.627-2.07 1.31-3.896 1.934-5.285.617-1.373 1.254-2.339 1.455-2.537 3.026-2.357 7.446-2.971 8.594-3.111M18.5 21c-1.452 0-2.665.674-3.414 1.637C14.337 23.599 14 24.806 14 26s.337 2.4 1.086 3.363S17.048 31 18.5 31s2.665-.674 3.414-1.637C22.663 28.401 23 27.194 23 26s-.337-2.4-1.086-3.363S19.952 21 18.5 21m13 0c-2.532 0-4.5 2.315-4.5 5s1.968 5 4.5 5 4.5-2.315 4.5-5-1.968-5-4.5-5m-13 2c.881 0 1.418.326 1.836.863.418.538.664 1.331.664 2.137s-.246 1.6-.664 2.137S19.38 29 18.5 29s-1.418-.326-1.836-.863C16.246 27.599 16 26.806 16 26s.246-1.6.664-2.137S17.62 23 18.5 23m13 0c1.268 0 2.5 1.285 2.5 3s-1.232 3-2.5 3-2.5-1.285-2.5-3 1.232-3 2.5-3"/></svg>