<svg xmlns="http://www.w3.org/2000/svg" fill="none" viewBox="0 0 140 37" class="header-content_textLogo__4DBN3"><g fill="currentColor" clip-path="url(#i0)"><path fill-rule="evenodd" d="m12.967 0 9.164 14.258-9.164 5.305-9.164-5.305L12.967 0Zm-6.36 13.58 6.36-9.891 6.36 9.892-6.36 3.68-6.36-3.68Z" clip-rule="evenodd"></path><path d="M12.959 22.697 2.328 16.544l-.287.448A12.828 12.828 0 0 0 3.795 33.03c5.057 5.027 13.262 5.027 18.328 0a12.807 12.807 0 0 0 1.754-16.038l-.287-.448-10.631 6.153ZM58.902 28.116h-12.09V8.684H50.5v16.004h8.402v3.428ZM77.443 28.116h-3.689V8.684h3.689v19.432ZM92.394 28.116V8.684h6.32c.958 0 1.737.032 2.327.106 1.525.18 2.844.718 3.943 1.608 1.114.89 1.959 2.032 2.533 3.427.581 1.388.868 2.914.868 4.579 0 1.665-.287 3.191-.868 4.587-.582 1.387-1.427 2.521-2.533 3.411-1.107.89-2.418 1.428-3.943 1.608-.598.073-1.377.106-2.328.106h-6.32Zm6.32-3.452c.958 0 1.663-.05 2.114-.139a3.619 3.619 0 0 0 2.033-1.15 5.762 5.762 0 0 0 1.221-2.212c.271-.874.41-1.796.41-2.767 0-.972-.139-1.934-.418-2.808-.271-.873-.68-1.608-1.238-2.203a3.51 3.51 0 0 0-2.008-1.118c-.451-.09-1.156-.14-2.115-.14H96.14v12.529h2.573v.008ZM130.541 28.524c-1.926 0-3.598-.416-5.033-1.256-1.426-.85-2.524-2.033-3.295-3.567-.762-1.526-1.139-3.297-1.139-5.305 0-2.008.377-3.779 1.139-5.305.771-1.526 1.869-2.71 3.295-3.55 1.426-.849 3.107-1.265 5.033-1.265 1.926 0 3.598.424 5.033 1.265 1.426.84 2.524 2.024 3.278 3.55.771 1.526 1.156 3.297 1.156 5.305 0 2.008-.385 3.779-1.156 5.305-.762 1.526-1.852 2.718-3.278 3.567-1.427.84-3.107 1.256-5.033 1.256Zm.106-3.452c1.197 0 2.197-.277 3.009-.824.811-.547 1.426-1.322 1.828-2.318.409-.996.606-2.171.606-3.526 0-2.09-.475-3.721-1.434-4.897-.959-1.175-2.369-1.77-4.23-1.77-1.197 0-2.197.277-3.008.824-.811.546-1.426 1.322-1.828 2.318-.41.995-.606 2.17-.606 3.525 0 2.09.475 3.722 1.434 4.897.959 1.175 2.369 1.771 4.229 1.771Z"></path></g><defs><clipPath id="i0"><path fill="#fff" d="M0 0h140v36.8H0z"></path></clipPath></defs></svg>